<?xml version="1.0" standalone="no"?>
<!DOCTYPE svg PUBLIC "-//W3C//DTD SVG 20010904//EN"
 "http://www.w3.org/TR/2001/REC-SVG-20010904/DTD/svg10.dtd">
<svg version="1.0" xmlns="http://www.w3.org/2000/svg"
 width="1024.000000pt" height="1024.000000pt" viewBox="0 0 1024.000000 1024.000000"
 preserveAspectRatio="xMidYMid meet">
<metadata>
Created by potrace 1.14, written by Peter Selinger 2001-2017
</metadata>
<g transform="translate(0.000000,1024.000000) scale(0.100000,-0.100000)"
fill="#000000" stroke="none">
<path d="M4918 10235 c-2 -1 -57 -6 -124 -9 -66 -4 -131 -8 -145 -11 -13 -2
-55 -6 -94 -10 -64 -6 -355 -48 -415 -60 -14 -2 -50 -10 -80 -16 -92 -18 -290
-68 -380 -96 -47 -15 -93 -28 -102 -30 -28 -5 -286 -102 -382 -145 -534 -232
-996 -576 -1366 -1017 -25 -30 -57 -68 -71 -85 -75 -88 -288 -404 -345 -511
-6 -11 -21 -38 -34 -60 -47 -84 -124 -241 -197 -405 -90 -200 -259 -716 -289
-880 -3 -14 -9 -41 -14 -60 -24 -94 -90 -450 -105 -570 -3 -25 -8 -63 -12 -85
-3 -22 -6 -51 -8 -65 -6 -58 -17 -157 -20 -180 -2 -14 -7 -63 -10 -110 -4 -47
-8 -101 -10 -120 -23 -238 -23 -974 0 -1173 2 -15 6 -67 10 -115 3 -48 8 -105
11 -127 6 -63 15 -137 20 -175 2 -19 6 -55 9 -80 3 -25 7 -56 10 -70 2 -14 7
-45 10 -70 8 -59 14 -99 20 -130 3 -14 8 -36 10 -50 3 -14 8 -41 11 -60 3 -19
15 -77 26 -129 11 -51 21 -101 23 -111 35 -180 169 -616 260 -845 69 -175 211
-463 301 -614 44 -73 84 -140 89 -149 47 -79 214 -307 299 -407 531 -627 1204
-1039 2043 -1249 76 -19 152 -37 168 -40 17 -3 41 -8 55 -11 39 -8 139 -25
210 -36 36 -5 76 -11 90 -14 33 -5 193 -24 250 -30 267 -26 814 -27 1075 -1
17 2 66 7 109 10 43 4 86 9 95 11 9 1 39 6 66 9 28 4 61 9 75 11 14 2 56 9 94
15 37 6 100 18 140 26 39 9 82 18 96 20 14 3 43 10 65 16 22 5 47 11 55 13
100 19 381 114 555 188 556 233 1097 656 1457 1137 44 58 130 187 152 225 9
17 26 46 38 65 126 210 255 553 308 819 5 25 11 55 14 67 2 12 8 45 11 75 4
30 9 65 11 79 10 71 18 217 18 310 -1 115 -12 331 -18 352 -3 7 -7 36 -10 63
-30 275 -159 653 -312 911 -255 432 -665 796 -1169 1039 -62 30 -118 55 -123
55 -21 0 -30 29 -36 115 -11 164 -36 338 -67 475 -6 25 -12 52 -14 60 -66 312
-243 692 -434 930 -320 400 -814 657 -1371 715 -161 17 -435 22 -545 11 -131
-13 -166 -18 -245 -32 -443 -80 -828 -276 -1131 -576 -58 -57 -119 -121 -137
-143 -77 -96 -150 -200 -144 -206 8 -7 664 -457 703 -483 l26 -16 51 68 c141
190 364 345 602 421 153 48 266 64 465 65 168 1 315 -7 334 -18 3 -2 28 -7 54
-10 134 -18 369 -120 486 -211 214 -165 373 -446 437 -770 13 -69 21 -115 20
-115 -1 0 -27 4 -57 10 -30 5 -74 12 -99 15 -25 3 -63 7 -85 10 -87 10 -134
15 -225 22 -119 10 -746 10 -860 1 -454 -38 -856 -159 -1170 -353 -140 -87
-212 -144 -344 -270 -153 -146 -297 -379 -369 -596 -67 -200 -86 -332 -82
-569 3 -145 9 -201 40 -352 3 -15 19 -68 35 -119 157 -480 534 -853 1059
-1048 163 -61 368 -110 529 -127 26 -3 65 -7 87 -9 47 -5 356 -6 400 -1 17 2
59 6 95 10 36 3 76 8 90 11 125 21 168 30 251 51 141 35 258 78 394 144 115
56 270 150 330 201 133 112 201 178 290 283 48 56 155 202 155 211 0 2 13 23
29 47 72 107 179 341 236 513 32 97 80 276 106 400 7 33 13 62 14 65 1 3 7 47
15 97 7 51 17 93 21 93 16 0 174 -113 254 -181 212 -180 362 -391 448 -629 41
-113 72 -236 93 -365 10 -68 13 -377 3 -445 -16 -113 -18 -127 -39 -217 -21
-90 -23 -97 -32 -123 -3 -8 -16 -44 -28 -80 -164 -477 -612 -962 -1152 -1244
-68 -36 -161 -81 -208 -101 -155 -66 -416 -147 -585 -181 -11 -2 -31 -6 -45
-9 -14 -3 -42 -8 -64 -11 -21 -3 -47 -7 -56 -9 -37 -7 -105 -16 -225 -30 -297
-34 -745 -39 -1005 -10 -25 2 -70 7 -100 10 -81 8 -139 15 -195 25 -27 5 -67
12 -87 14 -180 26 -510 119 -725 205 -687 273 -1208 764 -1557 1468 -36 73
-66 134 -66 137 0 3 -11 29 -24 58 -88 196 -229 651 -261 842 -3 17 -8 38 -10
46 -5 18 -7 31 -39 215 -13 77 -27 166 -31 199 -4 32 -8 68 -10 80 -5 30 -13
98 -20 186 -4 41 -8 91 -11 110 -25 222 -25 1040 0 1190 3 14 7 63 10 110 4
47 8 96 10 110 2 14 7 50 11 80 3 30 9 73 11 95 4 33 49 297 69 410 18 102
129 513 155 579 5 12 23 62 41 111 227 643 619 1179 1124 1535 145 102 343
213 510 285 22 9 49 21 60 26 248 111 723 227 1044 255 36 3 77 8 91 10 137
22 742 22 880 -1 14 -2 50 -6 80 -9 48 -4 106 -12 240 -31 20 -3 47 -7 60 -10
108 -21 194 -39 245 -52 33 -8 67 -16 75 -18 155 -31 477 -152 693 -263 127
-64 374 -217 442 -274 166 -137 218 -183 305 -270 168 -169 367 -430 480 -628
129 -229 245 -493 335 -766 30 -92 55 -172 55 -178 1 -42 9 -40 441 74 233 62
425 114 427 115 13 11 -125 429 -207 627 -243 589 -562 1068 -978 1468 -446
429 -969 730 -1613 929 -132 40 -391 101 -495 116 -22 4 -47 8 -56 11 -9 2
-34 7 -55 9 -22 3 -50 7 -64 10 -49 9 -163 24 -226 30 -21 2 -70 6 -109 10
-38 4 -92 9 -120 11 -59 5 -652 14 -657 9z m1037 -5259 c28 -3 82 -8 120 -12
39 -3 77 -8 85 -9 8 -1 40 -6 70 -10 30 -4 64 -9 75 -11 10 -2 35 -6 55 -9 19
-3 62 -11 95 -18 l60 -12 -1 -40 c-3 -102 -42 -351 -78 -495 -74 -292 -207
-550 -362 -704 -218 -217 -520 -324 -914 -324 -114 0 -285 18 -348 37 -18 5
-36 10 -40 11 -80 10 -253 84 -354 151 -99 65 -211 187 -257 279 -67 135 -89
284 -63 435 58 342 356 589 832 689 68 14 101 20 195 31 17 3 80 7 140 11 61
3 111 7 113 9 5 5 524 -4 577 -9z"/>
</g>
</svg>
